<?xml version="1.0" encoding="UTF-8"?>
<svg id="Layer_1" xmlns="http://www.w3.org/2000/svg" version="1.1" viewBox="0 0 224 225">
  <!-- Generator: Adobe Illustrator 29.6.1, SVG Export Plug-In . SVG Version: 2.1.1 Build 9)  -->
  <defs>
    <style>
      .st0 {
        fill: #195fa7;
      }
    </style>
  </defs>
  <path class="st0" d="M29.6,134.7h38.6v13.2h-15.4c.4,1.1,1.2,2.2,1.8,3.2,28.8,43.4,94.1,39.8,118.6-5.9,5.4-10.1,8-21.3,8.3-32.7h12.9c1,42.5-34.4,80.2-76.8,82l-.8.3h-9.3l-10.4-1.4c-19.5-3.6-37.1-14.3-49.5-29.7l-5.2-7.2v17.1h-12.9v-38.9h.1Z"/>
  <path class="st0" d="M29.6,105.4c.9-12.4,5.6-25.9,12.2-36.5,30.2-48.4,98.7-51.9,134.2-7.7l5.2,7.2v-17.1h12.9v38.9h-38.3v-13.2h15.1c-.5-1.4-1.5-2.7-2.3-4-30.4-44.2-98.1-38.1-119.9,10.9-8.2,15.3-6.2,28.4-6.2,28.4h-12.9c.1-2.3-.2-4.8,0-7.1v.2Z"/>
  <path class="st0" d="M87.1,75.5l21,20.7-10.6,10.9c1.5,2.8,18.2,19.7,19.7,19.4l11-10.6,21.4,21.4c-7.4,6.6-10.5,14.8-22,11.1-20.1-6.4-46.5-30.9-51.5-51.7-2.7-11.2,4.4-14.1,11.1-21.3h0Z"/>
</svg>