<?xml version="1.0" encoding="UTF-8"?>
<svg id="Layer_1" xmlns="http://www.w3.org/2000/svg" version="1.1" viewBox="0 0 224 225">
  <!-- Generator: Adobe Illustrator 29.6.1, SVG Export Plug-In . SVG Version: 2.1.1 Build 9)  -->
  <defs>
    <style>
      .st0 {
        fill: #195fa7;
      }
    </style>
  </defs>
  <path class="st0" d="M135.3,27.4c3.6,1,6.4,3.5,10,4.5,5.2,1.5,9.9,0,14.8,2.4s6.5,8.5,11.1,12.2,7.5,3.4,10,8.2,1.1,8.4,2.2,13.1,5.4,8,5,14.3-3.5,7.6-4.8,11.8.2,9.5-2.8,14.5-6.6,5-10.2,8.1-5.1,8.5-9.9,11.4-8.7,1.4-13.9,2.4-7.5,3.9-11.5,4.7c-8.1,1.7-10.9-3.2-17.7-4.7s-10.3.8-15.9-3.7c-3-2.5-4.3-6.5-7-9.2s-8.8-4.2-11.7-9.6-.9-9.1-2.4-13.9-3.7-6-4.5-9.5c-1.9-8.4,4.6-11.6,5.2-18.8s-.3-5.7,1-9.3c2.5-6.5,7.9-6.7,12.1-10.8s4.3-7.7,8.6-10.4,10.1-1.5,15.8-3.1,6.6-3.5,10.3-4.5h6ZM151.4,46.1c-1.1.3-1.7,1.7-2.4,2.6-13.8,20.3-25.7,42.7-39.4,63.2-2.2,3.4,2.2,6.8,4.7,3.3l40.7-65c1.1-2.7-.6-4.8-3.5-4.2ZM112.9,47.4c-20.6,1.2-16.7,38.2,4,33s13.4-34-4-33ZM150.1,81.6c-19.3.7-18,34.6,1.2,33.5,18.9-1.1,17.8-34.2-1.2-33.5Z"/>
  <path class="st0" d="M197,156.6l-58,37.5c-7.7,3.4-16.5,4.4-24.8,2.6-13.9-3-28.1-8.9-42-11.8s-11.8.3-17.7,4c.2-12.1.4-24.2,1-36.3,10.8-7.6,24.7-8.4,36.8-3.4,3,1.3,5.7,3.1,8.8,4.1,11.1,3.9,25,1.1,36.5,2.7s12.1,6.4,13.1,13c-6.8-.2-13.6-.1-20.4-.3-4,0-8-.3-12-.3s-4.9-1-6.8.2-1.9,4.3.3,5,3.2.4,4.2.5c7.8.5,16.4.5,24.2.7,4.6.1,9.3-.1,13.9.2,4.5-.8,1.4-6.5,2.6-7.7,10.2-4.7,20.1-9.9,30.4-14.1,3.8-.4,6.8.3,9.8,2.6v1Z"/>
  <polygon class="st0" points="49.9 141.7 48.6 195.5 27 195.2 28.6 141 49.9 141.7"/>
  <path class="st0" d="M111.9,53.4c11.6-2,14.4,17.1,4.5,21.1s-11.6-3.8-11.8-9.8,2.6-10.6,7.2-11.4Z"/>
  <path class="st0" d="M148.8,87.6c15.1-2.6,13.1,25.5-.3,21.4s-8.2-20,.3-21.4Z"/>
</svg>