<svg xmlns="http://www.w3.org/2000/svg" width="42" height="42" viewBox="0 0 42 42">
  <g id="Group_8724" data-name="Group 8724" transform="translate(-137 -3239)">
    <circle id="Ellipse_434" data-name="Ellipse 434" cx="21" cy="21" r="21" transform="translate(137 3239)" fill="#def9ff"/>
    <g id="Group_8747" data-name="Group 8747" transform="translate(75.31 3072.125)">
      <path id="Path_13956" data-name="Path 13956" d="M82.791,198.99a6.323,6.323,0,0,1-1.778-.884,2.072,2.072,0,0,0-1.192-.272c-.414.007-.83.006-1.243-.025a2.017,2.017,0,0,1-1.582-.96,11.162,11.162,0,0,1-.581-1,2.159,2.159,0,0,0-.952-.952c-.3-.154-.593-.321-.881-.5a2.247,2.247,0,0,1-1.118-2.044c0-.352,0-.7.01-1.055a1.809,1.809,0,0,0-.281-1.02c-.2-.336-.411-.672-.594-1.019a2.209,2.209,0,0,1,0-2.161,7.637,7.637,0,0,1,.466-.8,2.333,2.333,0,0,0,.411-1.513,8.625,8.625,0,0,1,.025-1.158,2.027,2.027,0,0,1,.96-1.582,8.192,8.192,0,0,1,.91-.53,2.315,2.315,0,0,0,1.094-1.1,8.745,8.745,0,0,1,.493-.858,2.206,2.206,0,0,1,1.933-1.047c.338-.007.676,0,1.013.011a2.05,2.05,0,0,0,1.2-.324,12.267,12.267,0,0,1,1.119-.628,2.081,2.081,0,0,1,1.909.039,9.035,9.035,0,0,1,.932.534,2.253,2.253,0,0,0,1.4.38,9.941,9.941,0,0,1,1.221.024,2.037,2.037,0,0,1,1.594.977,8.131,8.131,0,0,1,.517.893,2.3,2.3,0,0,0,1.1,1.094,8.83,8.83,0,0,1,.841.481,2.215,2.215,0,0,1,1.063,1.947c.007.345.007.69-.01,1.034a1.94,1.94,0,0,0,.325,1.178,6,6,0,0,1,.392.649c.162.339.293.692.438,1.039v.676c-.141.341-.269.688-.428,1.02a6.276,6.276,0,0,1-.4.668,1.942,1.942,0,0,0-.325,1.178c.017.344.017.69.01,1.034a2.215,2.215,0,0,1-1.064,1.946,8.811,8.811,0,0,1-.841.481,2.308,2.308,0,0,0-1.1,1.094,8.082,8.082,0,0,1-.53.91,2.024,2.024,0,0,1-1.582.96c-.413.031-.829.031-1.243.025a2.058,2.058,0,0,0-1.173.262,6.376,6.376,0,0,1-1.8.894Zm3.862-2.435c.282,0,.479-.005.676,0a1.018,1.018,0,0,0,.978-.576c.13-.233.269-.462.387-.7a3.343,3.343,0,0,1,1.538-1.537,9.817,9.817,0,0,0,.873-.51.832.832,0,0,0,.39-.731q0-.591,0-1.182a3.046,3.046,0,0,1,.441-1.646c.2-.331.4-.664.584-1a.963.963,0,0,0,0-.986c-.146-.264-.292-.53-.457-.782a3.346,3.346,0,0,1-.57-2.034c.015-.33.006-.661.005-.992a.872.872,0,0,0-.426-.778c-.261-.164-.527-.326-.8-.463a3.461,3.461,0,0,1-1.607-1.613,8.48,8.48,0,0,0-.5-.851.788.788,0,0,0-.681-.36c-.436-.007-.872,0-1.308,0a2.87,2.87,0,0,1-1.467-.4c-.32-.19-.642-.378-.961-.57a1.111,1.111,0,0,0-1.234,0c-.312.189-.627.375-.941.562a2.913,2.913,0,0,1-1.508.4c-.408,0-.816,0-1.223,0a.9.9,0,0,0-.806.456,8.308,8.308,0,0,0-.428.75,3.476,3.476,0,0,1-1.657,1.648,7.459,7.459,0,0,0-.83.5.776.776,0,0,0-.348.666c-.007.422,0,.844,0,1.266a2.951,2.951,0,0,1-.4,1.529c-.211.357-.424.713-.625,1.075a.953.953,0,0,0,0,.967c.159.289.322.577.5.854a3.27,3.27,0,0,1,.532,1.918c-.012.358-.007.717,0,1.076a.807.807,0,0,0,.366.7,7.376,7.376,0,0,0,.814.484,3.492,3.492,0,0,1,1.658,1.647,7.922,7.922,0,0,0,.492.834.808.808,0,0,0,.7.369c.323.005.647.015.97,0a3.385,3.385,0,0,1,2.114.583c.216.144.446.267.669.4a1.064,1.064,0,0,0,1.157.005c.176-.1.359-.195.526-.311A3.447,3.447,0,0,1,86.653,196.554Z" transform="translate(-0.627 -0.485)" fill="#39b6cb"/>
      <path id="Path_13959" data-name="Path 13959" d="M139.353,237.06a7.452,7.452,0,1,1-7.441,7.457A7.462,7.462,0,0,1,139.353,237.06Zm-6.156,7.434a6.166,6.166,0,1,0,6.194-6.149A6.177,6.177,0,0,0,133.2,244.494Z" transform="translate(-56.861 -56.818)" fill="#39b6cb"/>
      <path id="Path_13961" data-name="Path 13961" d="M204.31,323.563l-5.048,4.847-2.62-2.62.867-.867,1.723,1.735,4.12-3.954Z" transform="translate(-117.94 -137.632)" fill="#39b6cb"/>
    </g>
  </g>
</svg>
