<?xml version="1.0" encoding="UTF-8"?>
<svg id="Layer_1" data-name="Layer 1" xmlns="http://www.w3.org/2000/svg" viewBox="0 0 150 41">
  <defs>
    <style>
      .cls-1 {
        fill: #185da6;
      }

      .cls-2 {
        fill: #191919;
      }

      .cls-3 {
        fill: #fdfcfc;
      }

      .cls-4 {
        fill: #383435;
      }
    </style>
  </defs>
  <g>
    <path class="cls-1" d="M28.77,13.3c-.43,5.67-3.47,10.18-5.53,15.3-.31.78-.53,1.59-.83,2.35-.21.53-.9,1.23-1.26,1.76-1.26,1.86-3.1,5.59-5.09,6.59-.09.04-.51.23-.55.19.68-1.38,1.37-2.76,1.97-4.18,1.15-2.69,2.8-6.59,3.05-9.47.17.03.27-.22.33-.34.68-1.31,1.12-4,.67-5.41-.04-.13-.08-.24-.21-.29.15-6.16-7.69-.28-9.91.8-.22.11-.42.26-.68.22,1.07-2.06,2.41-4.01,3.85-5.84,2-2.55,7.07-8.53,10.32-8.9,4.18-.47,4.09,4.33,3.87,7.21Z"/>
    <path class="cls-4" d="M41.16,32.83s-.12-.13-.15-.28c-1.25-4.98-1.39-10.17-2.05-15.25l-2.67.52-1.29,6.07c-.44,1.4-.99,1.25-1.48-.02l-1.38-5.74c-.64-.2-1.31-.1-1.97-.12-.53,5.58-1.53,11.1-3.68,16.28,0,.16.28.28.42.36.7.42,2,1.18,2.72,1.48-3-.65-5.52-2.67-7.22-5.18.3-.76.51-1.57.83-2.35,2.06-5.11,5.1-9.62,5.53-15.3,3.88-1.2,8.08-.51,11.25,2.04,5.43,4.37,5.97,12.45,1.14,17.49Z"/>
    <path class="cls-3" d="M29.63,36.12c-.71-.3-2.02-1.06-2.72-1.48-.13-.08-.41-.2-.42-.36,2.16-5.18,3.15-10.7,3.68-16.28.66.02,1.34-.08,1.97.12l1.38,5.74c.49,1.27,1.04,1.42,1.48.02l1.29-6.07,2.67-.52c.65,5.08.8,10.27,2.05,15.25.04.14.15.25.15.28.03.11-.01.3.04.47.35,1.26.8,2.51,1.38,3.68l-3.84-1.37c-.15-.12-.06-.54-.08-.75-.21-2.75-.29-5.53-.55-8.27-.1-1.06-.45-3.12-1.29-.98l-1.25,7.38c-.06.09-1.71.37-1.77.31l-1.47-7.12c-.41-1.17-.94-.79-1.18.2l-1.28,9.82c-.08-.03-.15-.04-.24-.08Z"/>
    <path class="cls-4" d="M38.65,34.87c-2.03,1.12-4.37,1.77-6.71,1.65-.58-.03-1.53-.14-2.08-.32l1.28-9.82c.24-.99.76-1.37,1.18-.2l1.47,7.12c.06.06,1.71-.22,1.77-.31l1.25-7.38c.84-2.14,1.19-.08,1.29.98.26,2.74.34,5.53.55,8.27Z"/>
    <path class="cls-1" d="M28.67,1.55c2-.33,3.15,1.1,3,3-.12,1.54-1.46,2.72-3,2.14-2.06-.76-2.25-4.77,0-5.14Z"/>
    <path class="cls-4" d="M21.32,19.81c.14.05.17.17.21.29.45,1.4.01,4.09-.67,5.41-.06.12-.15.37-.33.34.08-.92.05-1.86.17-2.77.14-1.1.59-2.15.62-3.27Z"/>
  </g>
  <g>
    <path class="cls-2" d="M136.63,6.72c2-.09,3.31,2.11,2.28,3.83s-3.37,1.63-4.34,0,.16-3.73,2.06-3.82ZM136.56,7.24c-1.5.12-2.33,1.84-1.51,3.1s2.68,1.21,3.43-.08c.82-1.42-.29-3.15-1.92-3.02Z"/>
    <path class="cls-2" d="M137.89,10.51h-.61l-.67-1h-.37v1h-.52v-2.53h1.37s.2.06.24.08c.38.18.53.66.34,1.03-.1.19-.26.31-.47.39l.69,1.03ZM136.24,8.98h.81s.09-.05.11-.06c.14-.12.09-.35-.08-.42-.01,0-.07-.02-.07-.02h-.76v.5Z"/>
  </g>
  <g>
    <path class="cls-2" d="M94.5,9.69l3.49,7.45,3.61-7.45h2.78c-.02.1.02.45,0,.47-.05.05-1.2-.07-1.38.47-.05,1.11-.06,2.23-.04,3.34.02.95.04,1.95.08,2.9.02.4.04,1.18.12,1.53.21.99,1.24.65,1.38.78.02.02-.02.37,0,.47h-4.24c.02-.1-.02-.45,0-.47.03-.03.6-.02.84-.14.12-.06.41-.35.41-.45v-7.41l-4.04,8.4-.23-.08-3.49-8-.24,3.49c.07,1.07-.19,2.14-.07,3.21.06.51.19.73.69.87s.93-.1.79.59h-3.77c.02-.1-.03-.43,0-.47.06-.06.93-.03,1.21-.48.26-.41.38-2.12.44-2.7.12-1.3.28-2.88.31-4.16,0-.36.04-1.02-.16-1.32-.26-.39-1.2-.31-1.25-.36-.02-.02.02-.37,0-.47h2.75Z"/>
    <path class="cls-2" d="M128,12.98c-.16.79-.74.97-1.49.86.07.23.2.38.28.63.5,1.68-.8,3.03-2.43,3.14-.54.04-1.37-.3-1.45.44-.04.39.22.54.56.61,1.36.29,4.03-.58,4.3,1.59.37,2.95-5,4.59-6.44,2.29-.86-1.37.47-1.92,1.35-2.69-.43-.04-1.66-1.14-1.26-1.57.18-.19,1.2-.49,1.26-.86.02-.14-.66-.41-.74-.59-1.47-1.97.23-4.2,2.5-4.07.53.03,1.02.36,1.49.4.32.03,2-.24,2.08-.16ZM123.82,13.31c-1.42.26-1.37,4.07.68,3.74,1.46-.23,1.38-4.12-.68-3.74ZM123.82,19.91c-1.14.14-1.99,1.44-1.05,2.33,1.19,1.13,4.28.55,3.75-1.48-.25-.96-1.92-.95-2.71-.86Z"/>
    <path class="cls-2" d="M56.38,12.75v1.18c1.02-.68,1.84-1.52,3.16-1,1.94.76.97,4.13,1.25,5.73.06.33.19.44.51.51.43.1.45-.16.41.49h-3.29c.02-.1-.02-.45,0-.47.07-.07.78.18.92-.53.12-.59.08-2.92.02-3.59-.13-1.27-1.17-1.58-2.25-1.07-.19.09-.69.41-.73.6,0,1.77-.08,2.83.02,3.98.08,1.02,1.09.19,1,1.08h-3.53c-.13-.86,1.12-.13,1.1-1.06-.02-1.19-.04-2.77,0-4.31-.09-.58-.77-.43-.85-.52-.02-.02-.02-.45,0-.46l2.27-.55Z"/>
    <path class="cls-2" d="M114.9,12.75v1.18c.95-.66,1.79-1.48,3.04-1.04,2.16.76.85,4.27,1.37,5.93.16.53,1.11.11.92.84h-3.37c0-.12-.03-.3.03-.4.13-.18.79.13.95-.7.12-.63.1-3.43-.1-3.99-.44-1.26-2.26-.89-2.85.03v4.14c.15.6.89.4.94.45.02.02-.02.37,0,.47h-3.45c-.04-.65-.02-.39.41-.49.47-.11.64-.21.69-.72.08-.89.11-3.22,0-4.08s-1.05-.25-.94-1.06c.82-.03,1.57-.38,2.35-.55Z"/>
    <path class="cls-2" d="M131.82,12.77c5-.47,5.05,7.76-.47,7.02-3.85-.52-3.72-6.62.47-7.02ZM131.66,13.31c-2.28.38-1.96,6.33.92,5.94,2.14-.3,1.82-6.39-.92-5.94Z"/>
    <path class="cls-2" d="M111.76,18.63l.07.46c-.97.49-1.94,1.34-2.51-.15-.09-.07-1.26.79-1.55.84-.87.18-1.84-.37-2.12-1.22-.75-2.31,2.27-2.23,3.57-3.09.1-1.03-.27-2.14-1.51-1.94-.83.13-.62,1.51-1.2,1.63-.53.11-1.13-.49-.76-1s2.42-1.46,3.05-1.41c2.47.2,1.63,3.5,1.77,5.13.07.86.39.99,1.18.74ZM109.25,16.04c-.49.19-1.46.52-1.84.86-.84.73-.17,2.21,1.05,1.91.14-.04.8-.35.8-.46v-2.31Z"/>
    <path class="cls-2" d="M52.85,9.69v.47c-.93,0-1.39.06-1.42,1.06-.07,2.32.02,4.82.01,7.13.11.66.4.72.98.82.11.02.41,0,.42,0,.02.02-.02.37,0,.47h-4.31c.02-.1-.02-.45,0-.47.02-.01.32,0,.42,0,.6-.1.9-.15.98-.82,0-2.4.08-4.77.01-7.13-.03-1-.49-1.06-1.42-1.06v-.47h4.31Z"/>
    <path class="cls-2" d="M71.28,15.88c0,1.79,1.24,3.34,3.14,2.63.33-.13.95-.71,1.14-.35.12.23-.49.74-.68.89-2.8,2.2-5.77-.63-4.78-3.76.55-1.74,2.77-3.29,4.5-2.14.64.42,1.46,1.74.88,2.42l-4.2.31ZM71.36,15.18h2.71c.32,0,.1-1.41-.65-1.71-1.19-.47-1.9.7-2.06,1.71Z"/>
    <path class="cls-2" d="M80.63,14.77c-.05-.03-.36-.83-.59-1.06-.97-.97-2.41-.09-1.79,1.05.44.81,2.17.91,2.83,1.88.98,1.45-.28,3.01-1.83,3.16-.56.06-2.11-.02-2.35-.62-.08-.19-.26-1.74-.19-1.81.12.02.38-.04.46.01.07.04.41,1.04.72,1.36.99,1.03,2.66.43,2.12-.95-.25-.63-1.67-1.04-2.23-1.46-1.46-1.09-.93-3.04.73-3.48.49-.13,2.04-.2,2.3.3.11.21.4,1.47.22,1.59-.07.05-.32.06-.39.02Z"/>
    <path class="cls-2" d="M65.4,12.9c.26.73-.67.4-.78.76-.13.41,1.38,3.45,1.52,4.1.16.03.11-.07.15-.16.34-.71,1.2-2.79,1.29-3.5.12-.94-.64-.54-.77-.75-.05-.08.01-.34-.01-.46h2.82c.17.75-.44.41-.86.75-.39.32-1.42,2.86-1.69,3.49-.36.85-.71,1.72-1.02,2.59-.11.13-.42.08-.58.07-.3-.87-.64-1.73-.99-2.58s-.89-2.45-1.35-3.19c-.09-.14-.27-.37-.41-.45-.41-.23-.84.02-.7-.67h3.37Z"/>
    <path class="cls-2" d="M84.54,10.79v2.12h1.69c.26,0,.15.71-.08.71h-1.61v4.04c0,.06.11.55.14.65.27.82,1.14.57,1.78.41.05,0,.13.38.12.39-.05.06-1.31.65-1.41.67-.66.17-1.43-.05-1.76-.68-.03-.07-.2-.48-.2-.5v-4.98h-1.1c-.08-.21.22-.59.39-.67.19-.09.68-.01.7-.04.05-.05-.07-.86.04-1.1.03-.06.87-.91.94-.95.13-.07.21-.09.36-.07Z"/>
    <path class="cls-2" d="M89.8,25.92c.03.36-.25.43-.55.39.34.57.01,1.37-.63,1.53-.22.06-.81-.03-.86.16-.13.41.8.26,1.05.28,1.81.2.75,2.21-.85,2.11-.59-.04-1.34-.51-.9-1.14.11-.15.56-.37.47-.51-.04-.06-.42-.12-.47-.52-.03-.21.75-.28.5-.51-.08-.07-.18-.08-.3-.23-.64-.86.3-1.79,1.25-1.64.16.03.29.14.48.16.27.02.54-.13.82-.08ZM88.05,26.09c-.54.16-.46,1.67.29,1.56.7-.1.55-1.81-.29-1.56ZM88.05,28.85c-.66.12-.73.99-.08,1.14.37.08.88.06,1.12-.26.58-.74-.45-1-1.04-.88Z"/>
    <path class="cls-2" d="M99.99,30.24c-.19-.15.33-.2.37-.25.07-.08.09-.43.1-.57.05-.72.08-2.13-.01-2.82-.05-.41-.64-.33-.46-.51.04-.04.98-.27,1.02-.24-.09.77.31.17.65.06.55-.18,1.17.17,1.37.71.43,1.15-.87,2.44-2.02,2.14.04.34-.08.86.05,1.16.1.23.55.03.5.33-.23-.04-1.5.06-1.57,0ZM101.03,26.49c-.05.08-.03,1.69.03,1.79.13.21.75.19.96.1.7-.3.68-2.06-.35-2.11-.09,0-.62.19-.64.23Z"/>
    <rect class="cls-2" x="48.54" y="31.34" width="58.28" height=".08"/>
    <path class="cls-2" d="M69.72,28.75c-.08-.44.4-.03.47-.58.03-.26.04-1.33,0-1.57-.06-.29-.39-.23-.39-.51l1.02-.24c-.09.75.28.18.65.06,1.6-.5.97,1.75,1.17,2.39.09.29.48.08.38.45h-1.41c-.14-.36.36-.2.4-.37.04-.18.03-1.32,0-1.56-.1-.83-1.11-.5-1.18-.16-.03.16-.03,1.6.01,1.72.08.24.49-.03.38.36h-1.49Z"/>
    <path class="cls-2" d="M94.66,28.75c-.08-.44.4-.03.47-.58.03-.2.03-1.6-.01-1.72-.05-.14-.51-.18-.38-.36.03-.04.87-.19,1.02-.24l.04.47c.38-.32.81-.64,1.32-.38.85.44.17,2.19.55,2.51.15.12.35-.03.28.31h-1.41c-.11-.4.3-.12.38-.36.05-.14.04-1.35.01-1.56-.1-.83-1.11-.5-1.18-.16-.04.21-.04,1.36,0,1.57.08.38.48.13.39.51h-1.49Z"/>
    <path class="cls-2" d="M50.73,28.75c-.06-.28.44-.24.47-.37s.02-1.85-.01-1.94c-.06-.17-.43-.1-.38-.36l1.02-.24.04.47c.38-.32.81-.64,1.32-.38.85.44.17,2.19.55,2.51.15.12.35-.03.28.31h-1.41c-.11-.4.3-.12.38-.36.05-.15.03-1.7-.03-1.83-.18-.42-1.07-.24-1.14.12-.04.21-.04,1.36,0,1.57.08.38.48.13.39.51h-1.49Z"/>
    <path class="cls-2" d="M109.33,28.75c-.08-.37.17-.15.36-.31.12-.1.1-.22.11-.36.02-.21.06-1.78,0-1.85-.05-.05-.56.11-.47-.12.06-.21.45-.18.47-.2s0-.4.04-.55c.14-.59.76-1.25,1.42-1.18.56.06.39.43.43.48.04.04.42-.17.61.02.5.51-.73,1.05-.61.06-.4.27-.63-.39-1.1-.12-.2.12-.2,1.25-.16,1.3.11.11.9-.26.71.31-.03.04-.71-.03-.71,0v2.2s.63.04.55.31h-1.65Z"/>
    <path class="cls-2" d="M67.66,25.87c2.05-.31,2.29,2.85.29,2.96s-2.09-2.69-.29-2.96ZM67.74,26.1c-.89.11-.82,2.11-.03,2.42,1.26.49,1.23-2.58.03-2.42Z"/>
    <path class="cls-2" d="M83.03,25.87c2.08-.35,2.38,2.72.44,2.96s-2.22-2.65-.44-2.96ZM83.11,26.1c-.8.16-.78,2.02,0,2.4,1.32.65,1.3-2.67,0-2.4Z"/>
    <path class="cls-2" d="M107.19,25.87c2.09-.36,2.37,2.72.44,2.96s-2.22-2.65-.44-2.96ZM107.27,26.1c-.8.16-.78,2.02,0,2.4,1.33.65,1.29-2.66,0-2.4Z"/>
    <path class="cls-2" d="M50.34,24.51c.01.68-.54-.02-.54.59,0,.65-.04,2.4-.01,3.06.02.54.65.13.55.58h-1.8c-.1-.45.55-.04.55-.58,0-.92-.01-1.95,0-3.14,0-.31-.5-.15-.55-.2.01-.06-.02-.31,0-.31h1.8Z"/>
    <path class="cls-2" d="M76.23,25.92c.09.36-.18.18-.23.24-.11.12.36,1.32.44,1.55.03.08-.02.22.14.17.07-.02.52-1.35.52-1.45,0-.41-.41-.11-.32-.51h1.18c.07.33-.1.19-.28.31-.28.2-.98,1.99-1.17,2.44s-.4,1.25-.6,1.59c-.18.3-.69.06-.6-.28.04-.17.31-.25.41-.38.21-.26.47-.7.42-1.03-.03-.25-.69-1.94-.83-2.16-.23-.35-.56-.12-.49-.49h1.41Z"/>
    <path class="cls-2" d="M92.7,28.36c.14.11-.52.45-.6.45-.23.02-.36-.29-.53-.3-.3,0-.85.73-1.36-.05-.76-1.15,1.21-1.19,1.39-1.45.19-.27-.34-1.16-.76-.75-.15.14-.24.98-.65.5-.35-.41.98-.96,1.36-.89.87.16.55,1.37.61,1.99.04.39.11.58.55.51ZM91.6,27.26c-.44.16-.97.24-.86.82.05.27.26.31.51.28.55-.05.3-.71.35-1.1Z"/>
    <path class="cls-2" d="M58.03,27.18c.06.73.35,1.19,1.14,1.1.24-.03.79-.47.55,0-.3.57-1.16.69-1.68.35-1.44-.94-.02-3.46,1.36-2.61.28.18.69.83.37,1.05-.14.1-1.47.1-1.73.11ZM59.21,26.87c.14-1.01-1.14-.93-1.1,0h1.1Z"/>
    <path class="cls-2" d="M62.11,26.71c-.19.18-.31-.27-.39-.36-.41-.46-1-.22-.75.35.17.36,1.14.35,1.28,1.08s-.74,1.1-1.35,1.03c-.71-.08-.56-.43-.67-1.01.42-.09.27.15.47.43.53.73,1.27.04.83-.44-.2-.22-.86-.33-1.05-.67-.49-.86.62-1.57,1.37-1.22.22.1.34.72.27.79Z"/>
    <path class="cls-2" d="M55.6,25.92c.11.36-.3.15-.31.43-.01.34.37,1.12.55,1.53.23-.19.73-1.46.59-1.65-.09-.12-.37.04-.28-.31h1.18c.09.37-.23.16-.4.37-.39.47-.7,1.75-1.01,2.34-.13.25-.22.31-.35.03-.21-.46-.8-2.22-1.1-2.43-.17-.12-.34.02-.28-.31h1.41Z"/>
    <path class="cls-2" d="M74.27,24.2v4.04c0,.35.62.15.47.51h-1.49c0-.06-.01-.22,0-.23.05-.05.39.13.47-.36.09-.61.07-2.41,0-3.06-.02-.18-.02-.41-.22-.49-.19-.07-.31.1-.26-.25l1.02-.16Z"/>
    <path class="cls-2" d="M80.78,28.16c.1.37.76.09.78.12.2.23-.85.87-1.26.33-.33-.44-.05-2.27-.15-2.37-.04-.04-.47.06-.47-.04,0-.31.44-.25.47-.28.02-.02-.03-.32.08-.51.05-.09.45-.46.55-.35.02.14-.03.83,0,.86.11.11.89-.26.71.31-.03.04-.71-.03-.71,0,0,.41-.08,1.63,0,1.92Z"/>
    <path class="cls-2" d="M63.6,25.06c.02.14-.03.83,0,.86.04.04.69-.06.71.04.06.46-.64.2-.71.27-.07.07-.02,1.78.02,1.91.09.32.44.19.67.15s.1.18-.03.29c-.28.23-.82.37-1.1.06-.38-.42-.07-2.3-.18-2.41-.04-.04-.47.06-.47-.04,0-.31.44-.25.47-.28.02-.02-.03-.32.08-.51.05-.09.45-.46.55-.35Z"/>
    <path class="cls-2" d="M114.11,25.06c.02.14-.03.83,0,.86.04.04.69-.06.71.04.06.46-.64.2-.71.27-.08.08-.02,2.09.13,2.12.2.05,1.04-.12.47.25-1.83,1.19-1.03-2.17-1.23-2.37-.04-.04-.47.06-.47-.04,0-.31.44-.25.47-.28.02-.02-.03-.32.08-.51.05-.09.45-.46.55-.35Z"/>
    <path class="cls-2" d="M103.52,28.75c-.08-.45.33-.02.4-.51.04-.28.05-1.49,0-1.73-.05-.26-.28-.16-.31-.2-.24-.28.71-.41.9-.47l.04.63c.22-.17.38-.56.68-.62.44-.08.69.35.33.66-.27.14-.52-.42-.9.2-.15.24-.19,1.31-.11,1.59.07.23.33.23.53.21v.24h-1.57Z"/>
    <path class="cls-2" d="M112.39,25.85v2.47c0,.23.64.09.47.43h-1.57c-.08-.44.4-.03.47-.58.03-.2.03-1.59-.01-1.72-.05-.16-.25-.13-.38-.13.01-.07-.02-.2,0-.23.03-.04.87-.19,1.02-.24Z"/>
    <path class="cls-2" d="M93.95,25.85v2.39c0,.35.62.15.47.51h-1.49c-.11-.4.3-.12.38-.36.05-.14.03-1.91-.03-1.99-.07-.1-.41-.07-.36-.31l1.02-.24Z"/>
    <path class="cls-2" d="M115.98,28.73c-.51.51-1.1-.65-.33-.69.44-.03.57.45.33.69Z"/>
    <path class="cls-2" d="M116.99,28.05c.75-.26.79.96.08.76-.34-.1-.38-.65-.08-.76Z"/>
    <path class="cls-2" d="M120.53,28.14c.29.29-.17.94-.58.62s.16-1.03.58-.62Z"/>
    <path class="cls-2" d="M118.37,28.14c.2-.24.72-.13.69.33-.04.77-1.12.15-.69-.33Z"/>
    <path class="cls-2" d="M93.54,24.6c.47-.12.7.81-.01.69-.43-.07-.3-.61.01-.69Z"/>
  </g>
</svg>