<?xml version="1.0" encoding="UTF-8"?>
<svg id="Layer_1" data-name="Layer 1" xmlns="http://www.w3.org/2000/svg" viewBox="0 0 200 84">
  <defs>
    <style>
      .cls-1 {
        fill: #185da6;
      }

      .cls-2 {
        fill: #fdfcfc;
      }

      .cls-3 {
        fill: #383435;
      }
    </style>
  </defs>
  <g>
    <path class="cls-1" d="M31.67,31.35c-.63,8.39-5.12,15.05-8.17,22.61-.46,1.15-.78,2.35-1.22,3.47-.31.79-1.33,1.82-1.86,2.61-1.87,2.75-4.59,8.27-7.53,9.75-.13.06-.75.35-.82.28,1.01-2.04,2.02-4.09,2.92-6.18,1.71-3.98,4.14-9.75,4.5-13.99.26.05.39-.33.48-.5,1.01-1.94,1.66-5.92.99-7.99-.06-.19-.12-.36-.32-.44.23-9.11-11.36-.42-14.65,1.18-.33.16-.62.38-1.01.33,1.59-3.05,3.57-5.93,5.69-8.63,2.95-3.77,10.45-12.61,15.25-13.15,6.18-.69,6.05,6.4,5.73,10.65Z"/>
    <path class="cls-3" d="M49.99,60.22s-.17-.2-.23-.41c-1.85-7.37-2.06-15.04-3.03-22.55l-3.95.77-1.9,8.97c-.64,2.07-1.46,1.85-2.18-.03l-2.04-8.49c-.94-.3-1.94-.15-2.91-.18-.79,8.25-2.26,16.41-5.45,24.07,0,.23.42.42.62.53,1.04.62,2.96,1.75,4.02,2.18-4.44-.96-8.16-3.95-10.67-7.65.44-1.12.76-2.32,1.22-3.47,3.05-7.56,7.54-14.23,8.17-22.61,5.74-1.77,11.94-.76,16.63,3.02,8.02,6.47,8.82,18.41,1.69,25.85Z"/>
    <path class="cls-2" d="M32.94,65.09c-1.06-.44-2.98-1.57-4.02-2.18-.2-.12-.61-.3-.62-.53,3.19-7.66,4.66-15.82,5.45-24.07.97.03,1.97-.11,2.91.18l2.04,8.49c.72,1.88,1.54,2.1,2.18.03l1.9-8.97,3.95-.77c.97,7.51,1.18,15.18,3.03,22.55.05.21.22.37.23.41.04.17-.02.44.05.7.52,1.87,1.18,3.71,2.03,5.44l-5.68-2.03c-.22-.18-.09-.8-.12-1.1-.31-4.06-.42-8.18-.81-12.23-.15-1.57-.66-4.62-1.91-1.45l-1.85,10.91c-.09.13-2.52.55-2.61.46l-2.17-10.53c-.61-1.73-1.39-1.17-1.74.3l-1.89,14.52c-.12-.04-.23-.07-.35-.12Z"/>
    <path class="cls-3" d="M46.28,63.24c-3.01,1.66-6.45,2.61-9.92,2.44-.86-.04-2.26-.21-3.07-.47l1.89-14.52c.35-1.47,1.13-2.03,1.74-.3l2.17,10.53c.09.09,2.52-.33,2.61-.46l1.85-10.91c1.25-3.16,1.76-.12,1.91,1.45.39,4.05.5,8.17.81,12.23Z"/>
    <path class="cls-1" d="M31.52,13.99c2.95-.49,4.65,1.62,4.43,4.43-.18,2.27-2.15,4.01-4.44,3.17-3.05-1.13-3.32-7.04,0-7.6Z"/>
    <path class="cls-3" d="M20.65,40.97c.2.08.26.25.32.44.67,2.08.02,6.05-.99,7.99-.09.18-.23.55-.48.5.12-1.36.08-2.74.25-4.1.21-1.63.87-3.17.91-4.83Z"/>
  </g>
  <g>
    <path class="cls-2" d="M191.1,21.63c2.95-.14,4.89,3.11,3.37,5.65s-4.98,2.41-6.42-.01.24-5.51,3.05-5.64ZM191,22.39c-2.22.17-3.44,2.72-2.23,4.58s3.96,1.79,5.07-.12c1.22-2.1-.43-4.65-2.84-4.46Z"/>
    <path class="cls-2" d="M192.96,27.23h-.9l-.99-1.49h-.54v1.49h-.77v-3.74h2.02c.06,0,.29.08.36.11.56.27.78.98.5,1.53-.15.29-.39.46-.69.57l1.01,1.53ZM190.53,24.97h1.2s.13-.07.16-.09c.2-.18.14-.52-.12-.62-.02,0-.1-.03-.11-.03h-1.13v.73Z"/>
  </g>
  <g>
    <path class="cls-2" d="M128.83,26.02l5.16,11.02,5.33-11.02h4.12c-.02.14.04.66,0,.7-.08.08-1.78-.1-2.04.69-.07,1.64-.08,3.3-.06,4.94.02,1.4.06,2.88.12,4.29.02.59.06,1.75.17,2.26.31,1.46,1.84.96,2.04,1.15.04.03-.03.55,0,.7h-6.26c.02-.14-.04-.66,0-.7.05-.04.89-.03,1.24-.21.17-.08.61-.51.61-.66v-10.96l-5.97,12.41-.35-.12-5.16-11.83-.35,5.15c.1,1.58-.29,3.17-.1,4.75.09.76.29,1.08,1.03,1.29s1.37-.15,1.16.86h-5.57c.03-.15-.05-.63,0-.69.09-.09,1.37-.04,1.78-.71.38-.61.56-3.13.65-3.99.18-1.91.42-4.25.46-6.15.01-.53.05-1.51-.24-1.96-.38-.57-1.77-.47-1.84-.53-.04-.03.03-.55,0-.7h4.06Z"/>
    <path class="cls-2" d="M178.34,30.89c-.24,1.16-1.1,1.43-2.2,1.28.1.34.3.56.41.93.74,2.48-1.19,4.48-3.59,4.64-.79.05-2.03-.45-2.15.64-.06.58.33.8.83.9,2.01.43,5.95-.86,6.35,2.34.54,4.35-7.4,6.78-9.53,3.38-1.27-2.03.7-2.84,2-3.97-.64-.06-2.45-1.69-1.86-2.32.26-.27,1.77-.72,1.86-1.27.03-.21-.98-.61-1.1-.88-2.17-2.92.35-6.21,3.7-6.02.79.04,1.51.53,2.2.59.47.04,2.95-.36,3.08-.24ZM172.16,31.38c-2.1.39-2.03,6.01,1.01,5.53,2.16-.34,2.04-6.1-1.01-5.53ZM172.17,41.12c-1.68.21-2.94,2.13-1.55,3.45,1.76,1.66,6.33.81,5.55-2.19-.37-1.42-2.84-1.41-4-1.26Z"/>
    <path class="cls-2" d="M72.48,30.54v1.74c1.51-1,2.72-2.25,4.67-1.48,2.87,1.13,1.43,6.11,1.85,8.47.09.49.28.65.75.75.64.14.67-.24.61.72h-4.87c.02-.14-.04-.66,0-.7.11-.11,1.16.26,1.37-.78.18-.88.12-4.32.03-5.31-.19-1.88-1.74-2.34-3.32-1.59-.28.13-1.02.6-1.08.89,0,2.61-.11,4.18.03,5.88.12,1.51,1.62.29,1.48,1.59h-5.22c-.2-1.28,1.65-.2,1.63-1.56-.03-1.76-.06-4.09,0-6.37-.13-.86-1.14-.64-1.26-.77-.02-.02-.02-.66,0-.69l3.36-.82Z"/>
    <path class="cls-2" d="M158.97,30.54v1.74c1.4-.97,2.65-2.2,4.5-1.54,3.2,1.12,1.26,6.3,2.02,8.76.24.79,1.64.17,1.37,1.24h-4.99c.01-.17-.05-.45.05-.59.19-.26,1.17.19,1.41-1.03.18-.93.15-5.06-.14-5.9-.65-1.86-3.34-1.32-4.21.04l.02,6.12c.2.89,1.3.6,1.37.66.04.04-.03.55,0,.7h-5.1c-.06-.96-.03-.58.61-.73.69-.16.95-.31,1.02-1.07.12-1.32.16-4.76-.01-6.03s-1.56-.36-1.38-1.57c1.21-.04,2.32-.56,3.48-.81Z"/>
    <path class="cls-2" d="M183.99,30.57c7.4-.7,7.46,11.47-.7,10.37-5.68-.77-5.5-9.79.7-10.37ZM183.76,31.38c-3.36.56-2.89,9.36,1.35,8.77,3.16-.44,2.69-9.45-1.35-8.77Z"/>
    <path class="cls-2" d="M154.33,39.24l.11.69c-1.44.72-2.87,1.98-3.7-.22-.14-.11-1.87,1.16-2.29,1.25-1.29.27-2.72-.55-3.13-1.8-1.11-3.42,3.35-3.3,5.28-4.57.15-1.53-.39-3.17-2.24-2.87-1.23.2-.92,2.23-1.77,2.41-.78.16-1.67-.72-1.13-1.48s3.58-2.15,4.5-2.08c3.65.29,2.41,5.17,2.62,7.59.11,1.28.57,1.46,1.74,1.1ZM150.63,35.41c-.72.28-2.15.78-2.73,1.27-1.25,1.08-.25,3.27,1.55,2.82.21-.05,1.18-.51,1.18-.67v-3.42Z"/>
    <path class="cls-2" d="M67.26,26.02v.7c-1.37,0-2.05.09-2.09,1.56-.1,3.43.03,7.12.02,10.55.16.98.59,1.07,1.45,1.21.16.03.6,0,.62.01.04.03-.02.55,0,.7h-6.38c.02-.14-.04-.66,0-.7.02-.02.47.01.62-.01.88-.15,1.33-.22,1.45-1.22-.01-3.55.12-7.05.02-10.54-.04-1.47-.72-1.56-2.09-1.56v-.7h6.38Z"/>
    <path class="cls-2" d="M94.51,35.18c0,2.64,1.83,4.94,4.64,3.88.49-.18,1.41-1.05,1.69-.52.18.34-.72,1.1-1,1.32-4.14,3.25-8.53-.93-7.07-5.56.81-2.57,4.09-4.87,6.65-3.17.94.63,2.16,2.57,1.3,3.58l-6.21.46ZM94.62,34.13h4c.48,0,.15-2.08-.96-2.52-1.76-.7-2.81,1.03-3.04,2.52Z"/>
    <path class="cls-2" d="M108.32,33.54c-.08-.05-.54-1.23-.87-1.56-1.44-1.43-3.56-.13-2.65,1.55.65,1.2,3.21,1.34,4.18,2.78,1.45,2.14-.41,4.44-2.71,4.68-.83.08-3.12-.03-3.48-.92-.12-.29-.39-2.57-.29-2.67.18.03.56-.06.68.02.1.06.61,1.54,1.06,2.01,1.46,1.53,3.94.63,3.14-1.4-.37-.93-2.46-1.54-3.29-2.16-2.16-1.6-1.37-4.49,1.08-5.14.72-.19,3.02-.3,3.39.44.16.31.59,2.17.33,2.35-.1.07-.47.1-.57.03Z"/>
    <path class="cls-2" d="M85.81,30.77c.39,1.09-.98.59-1.15,1.12-.19.61,2.04,5.1,2.25,6.07.24.05.16-.1.22-.23.5-1.05,1.77-4.13,1.91-5.17.18-1.39-.94-.8-1.13-1.11-.08-.13.02-.5-.02-.68h4.17c.25,1.11-.65.6-1.27,1.11-.58.47-2.09,4.22-2.49,5.16-.54,1.26-1.05,2.54-1.51,3.82-.16.19-.62.12-.86.1-.44-1.28-.95-2.55-1.47-3.81s-1.32-3.63-2-4.72c-.13-.21-.41-.55-.61-.66-.61-.35-1.24.04-1.03-.99h4.99Z"/>
    <path class="cls-2" d="M114.1,27.64v3.13h2.49c.39,0,.23,1.04-.12,1.04h-2.38v5.97c0,.09.16.82.2.96.4,1.21,1.69.84,2.63.6.07.01.2.56.18.58-.07.09-1.94.96-2.08,1-.98.25-2.12-.08-2.6-1-.05-.1-.3-.7-.3-.74v-7.36h-1.62c-.11-.32.33-.87.58-.98.28-.13,1-.02,1.04-.06.07-.07-.1-1.28.06-1.62.04-.09,1.29-1.34,1.38-1.4.19-.11.31-.14.53-.11Z"/>
    <path class="cls-2" d="M121.87,50.02c.05.53-.37.63-.81.58.5.85.02,2.02-.92,2.26-.33.08-1.19-.04-1.28.23-.19.6,1.18.38,1.55.42,2.67.3,1.1,3.27-1.26,3.12-.87-.06-1.98-.75-1.34-1.68.16-.23.83-.55.7-.75-.06-.09-.62-.17-.7-.76-.04-.32,1.1-.42.74-.76-.12-.11-.27-.11-.44-.35-.95-1.28.44-2.64,1.84-2.42.24.04.42.21.7.23.4.03.8-.2,1.22-.12ZM119.29,50.27c-.8.24-.67,2.46.43,2.3,1.03-.15.81-2.67-.43-2.3ZM119.29,54.34c-.97.18-1.08,1.47-.12,1.69.55.12,1.3.09,1.66-.38.85-1.09-.66-1.47-1.54-1.31Z"/>
    <path class="cls-2" d="M136.94,56.4c-.28-.22.48-.3.55-.38.11-.12.14-.64.15-.84.07-1.07.12-3.15-.02-4.17-.08-.6-.95-.49-.68-.76.05-.06,1.45-.4,1.51-.35-.13,1.14.46.25.96.09.82-.27,1.73.25,2.03,1.04.63,1.7-1.28,3.61-2.98,3.16.06.5-.12,1.26.08,1.71.15.34.81.04.73.49-.34-.06-2.21.08-2.32,0ZM138.47,50.85c-.07.11-.05,2.5.04,2.65.19.32,1.11.28,1.42.14,1.03-.44,1.01-3.05-.51-3.13-.14,0-.91.28-.95.33Z"/>
    <rect class="cls-2" x="60.89" y="58.02" width="86.15" height=".12"/>
    <path class="cls-2" d="M92.19,54.19c-.12-.66.59-.04.7-.86.05-.39.06-1.97,0-2.32-.08-.43-.57-.34-.58-.75l1.51-.35c-.14,1.11.42.26.96.09,2.37-.73,1.44,2.59,1.73,3.54.13.43.71.12.56.66h-2.09c-.21-.53.53-.3.58-.54.06-.27.04-1.95,0-2.3-.14-1.23-1.65-.74-1.74-.23-.04.24-.04,2.37.02,2.54.12.36.73-.05.56.54h-2.2Z"/>
    <path class="cls-2" d="M129.06,54.19c-.12-.66.59-.04.7-.86.04-.29.04-2.36-.02-2.54-.07-.2-.76-.27-.56-.54.05-.06,1.28-.28,1.51-.35l.06.69c.56-.47,1.2-.95,1.96-.56,1.26.64.25,3.24.82,3.71.22.18.52-.05.41.45h-2.09c-.17-.58.44-.18.56-.54.07-.2.05-1.99.02-2.31-.14-1.23-1.65-.74-1.74-.23-.06.31-.06,2.02,0,2.32.11.57.72.19.58.76h-2.2Z"/>
    <path class="cls-2" d="M64.13,54.19c-.09-.42.66-.35.7-.54s.03-2.73-.02-2.87c-.09-.25-.63-.15-.56-.54l1.51-.35.06.69c.56-.47,1.2-.95,1.96-.56,1.26.64.25,3.24.82,3.71.22.18.52-.05.41.45h-2.09c-.17-.58.44-.18.56-.54.07-.21.04-2.51-.05-2.71-.27-.62-1.58-.35-1.68.17-.06.31-.06,2.02,0,2.32.11.57.72.19.58.76h-2.2Z"/>
    <path class="cls-2" d="M150.74,54.19c-.12-.55.25-.23.53-.45.18-.14.15-.33.17-.53.03-.31.09-2.64,0-2.73-.07-.07-.83.16-.7-.17.09-.31.66-.27.69-.3s0-.6.06-.81c.21-.88,1.13-1.84,2.1-1.74.83.09.57.64.64.7.06.06.63-.25.9.03.74.76-1.08,1.55-.9.09-.6.39-.93-.58-1.62-.17-.3.17-.3,1.84-.23,1.91.17.17,1.33-.38,1.04.46-.05.05-1.04-.05-1.04,0v3.25c0,.05.94.05.81.46h-2.43Z"/>
    <path class="cls-2" d="M89.15,49.93c3.03-.46,3.38,4.21.43,4.38s-3.09-3.98-.43-4.38ZM89.27,50.27c-1.32.17-1.21,3.13-.04,3.58,1.87.73,1.82-3.81.04-3.58Z"/>
    <path class="cls-2" d="M111.87,49.93c3.07-.52,3.52,4.02.66,4.37s-3.28-3.92-.66-4.37ZM111.99,50.27c-1.19.24-1.15,2.98,0,3.55,1.95.96,1.92-3.94,0-3.55Z"/>
    <path class="cls-2" d="M147.58,49.93c3.09-.53,3.5,4.02.66,4.37s-3.28-3.92-.66-4.37ZM147.7,50.27c-1.19.24-1.15,2.98,0,3.55,1.96.97,1.91-3.94,0-3.55Z"/>
    <path class="cls-2" d="M63.55,47.93c.02,1.01-.81-.03-.8.88,0,.96-.06,3.54-.02,4.52.03.8.96.2.82.86h-2.67c-.14-.67.81-.06.82-.86,0-1.36-.02-2.89,0-4.64.01-.46-.75-.22-.81-.29.02-.08-.02-.46,0-.46h2.67Z"/>
    <path class="cls-2" d="M101.81,50.02c.13.54-.26.27-.34.35-.17.18.53,1.95.66,2.29.05.12-.03.33.2.26.11-.04.76-2,.76-2.15,0-.61-.61-.16-.47-.75h1.74c.1.49-.15.27-.41.46-.42.3-1.46,2.95-1.73,3.6s-.6,1.85-.89,2.35c-.26.45-1.02.09-.89-.42.06-.25.46-.37.61-.56.31-.38.69-1.03.63-1.52-.05-.37-1.01-2.87-1.23-3.19-.34-.51-.83-.17-.72-.73h2.09Z"/>
    <path class="cls-2" d="M126.16,53.61c.21.16-.77.66-.89.67-.34.03-.53-.43-.79-.44-.44-.01-1.26,1.07-2.02-.07-1.12-1.7,1.79-1.76,2.06-2.14.29-.4-.5-1.71-1.12-1.11-.22.21-.35,1.45-.97.73-.52-.61,1.45-1.43,2.01-1.32,1.29.24.81,2.02.9,2.93.06.58.16.86.81.75ZM124.54,51.99c-.65.23-1.44.35-1.27,1.21.08.39.39.45.75.42.82-.07.45-1.05.52-1.63Z"/>
    <path class="cls-2" d="M74.91,51.87c.09,1.07.52,1.76,1.68,1.62.36-.04,1.17-.69.81,0-.44.84-1.72,1.01-2.49.52-2.13-1.38-.02-5.12,2-3.86.42.26,1.02,1.22.55,1.55-.2.14-2.17.14-2.56.17ZM76.65,51.41c.21-1.49-1.69-1.37-1.62,0h1.62Z"/>
    <path class="cls-2" d="M80.94,51.18c-.28.27-.46-.4-.58-.53-.61-.68-1.49-.32-1.1.52.24.54,1.68.52,1.89,1.6s-1.09,1.63-2,1.53c-1.04-.12-.83-.63-.99-1.5.62-.13.4.23.69.64.79,1.08,1.88.06,1.22-.65-.3-.32-1.27-.48-1.56-.99-.72-1.27.91-2.32,2.03-1.8.33.15.5,1.07.39,1.17Z"/>
    <path class="cls-2" d="M71.32,50.02c.17.54-.45.22-.46.63-.02.5.54,1.66.81,2.27.34-.27,1.08-2.16.88-2.44-.13-.18-.55.06-.41-.45h1.74c.14.55-.34.24-.59.55-.57.7-1.03,2.59-1.49,3.46-.2.37-.33.47-.52.05-.31-.68-1.19-3.29-1.63-3.6-.26-.18-.5.03-.41-.46h2.09Z"/>
    <path class="cls-2" d="M98.91,47.47v5.97c0,.52.91.22.7.75h-2.2c.01-.09-.02-.33,0-.35.07-.07.58.2.69-.53.14-.9.1-3.56.01-4.52-.02-.27-.03-.61-.32-.73-.27-.11-.45.15-.38-.37l1.51-.23Z"/>
    <path class="cls-2" d="M108.54,53.32c.15.55,1.12.13,1.16.17.29.35-1.26,1.29-1.86.49-.49-.66-.08-3.36-.23-3.51-.05-.05-.7.09-.7-.06.01-.46.66-.37.69-.41.03-.03-.05-.47.11-.76.08-.14.66-.67.82-.51.04.21-.05,1.23,0,1.28.16.16,1.32-.38,1.04.46-.05.05-1.04-.05-1.04,0,0,.61-.12,2.41,0,2.84Z"/>
    <path class="cls-2" d="M83.15,48.74c.04.21-.05,1.23,0,1.28.06.06,1.02-.1,1.04.06.09.68-.94.3-1.04.4-.1.1-.03,2.63.02,2.82.14.48.66.29.99.22s.15.27-.04.43c-.42.34-1.21.55-1.63.1-.57-.62-.11-3.4-.27-3.56-.05-.05-.7.09-.7-.06.01-.46.66-.37.69-.41.03-.03-.05-.47.11-.76.08-.14.66-.67.82-.51Z"/>
    <path class="cls-2" d="M157.81,48.74c.04.21-.05,1.23,0,1.28.06.06,1.02-.1,1.04.06.09.68-.94.3-1.04.4-.11.11-.03,3.08.19,3.14.29.07,1.54-.18.7.37-2.7,1.76-1.53-3.21-1.82-3.5-.05-.05-.7.09-.7-.06.01-.46.66-.37.69-.41.03-.03-.05-.47.11-.76.08-.14.66-.67.82-.51Z"/>
    <path class="cls-2" d="M142.16,54.19c-.12-.66.49-.02.59-.75.05-.41.07-2.2,0-2.56-.08-.39-.41-.24-.46-.29-.36-.41,1.05-.6,1.33-.69l.06.93c.33-.25.56-.83,1.01-.91.65-.12,1.02.52.49.97-.4.2-.76-.62-1.33.29-.22.36-.28,1.94-.16,2.35.1.35.49.33.79.31v.35h-2.32Z"/>
    <path class="cls-2" d="M155.26,49.9v3.65c0,.34.94.14.7.64h-2.32c-.12-.66.59-.04.7-.86.04-.3.04-2.35-.02-2.54-.08-.24-.37-.19-.57-.19.02-.1-.03-.29,0-.34.04-.07,1.29-.29,1.5-.35Z"/>
    <path class="cls-2" d="M128.02,49.9v3.54c0,.52.91.22.7.75h-2.2c-.17-.58.44-.18.56-.54.07-.2.05-2.82-.04-2.95-.11-.16-.6-.1-.53-.46l1.51-.35Z"/>
    <path class="cls-2" d="M160.57,54.16c-.75.76-1.62-.96-.49-1.03.66-.04.85.67.49,1.03Z"/>
    <path class="cls-2" d="M162.07,53.17c1.11-.38,1.16,1.42.12,1.12-.51-.15-.57-.97-.12-1.12Z"/>
    <path class="cls-2" d="M167.29,53.29c.43.43-.26,1.39-.85.91s.23-1.52.85-.91Z"/>
    <path class="cls-2" d="M164.1,53.29c.3-.35,1.06-.19,1.03.49-.06,1.14-1.65.23-1.03-.49Z"/>
    <path class="cls-2" d="M127.4,48.06c.69-.17,1.03,1.2-.02,1.03-.63-.11-.45-.91.02-1.03Z"/>
  </g>
</svg>